<?xml version="1.0" encoding="UTF-8" standalone="no"?>
<svg
   xmlns:dc="http://purl.org/dc/elements/1.1/"
   xmlns:cc="http://creativecommons.org/ns#"
   xmlns:rdf="http://www.w3.org/1999/02/22-rdf-syntax-ns#"
   xmlns:svg="http://www.w3.org/2000/svg"
   xmlns="http://www.w3.org/2000/svg"
   xmlns:sodipodi="http://sodipodi.sourceforge.net/DTD/sodipodi-0.dtd"
   xmlns:inkscape="http://www.inkscape.org/namespaces/inkscape"
   width="122.55502mm"
   height="82.245132mm"
   viewBox="0 0 122.55502 82.245132"
   version="1.1"
   id="svg891"
   inkscape:version="1.0.2 (e86c870879, 2021-01-15, custom)"
   sodipodi:docname="bypass.svg">
  <defs
     id="defs885" />
  <sodipodi:namedview
     id="base"
     pagecolor="#ffffff"
     bordercolor="#666666"
     borderopacity="1.0"
     inkscape:pageopacity="0.0"
     inkscape:pageshadow="2"
     inkscape:zoom="0.98994949"
     inkscape:cx="151.47632"
     inkscape:cy="122.12107"
     inkscape:document-units="mm"
     inkscape:current-layer="layer1"
     inkscape:document-rotation="0"
     showgrid="false"
     fit-margin-top="0"
     fit-margin-left="0"
     fit-margin-right="0"
     fit-margin-bottom="0"
     inkscape:window-width="1920"
     inkscape:window-height="1017"
     inkscape:window-x="-8"
     inkscape:window-y="-8"
     inkscape:window-maximized="1" />
  <metadata
     id="metadata888">
    <rdf:RDF>
      <cc:Work
         rdf:about="">
        <dc:format>image/svg+xml</dc:format>
        <dc:type
           rdf:resource="http://purl.org/dc/dcmitype/StillImage" />
        <dc:title></dc:title>
      </cc:Work>
    </rdf:RDF>
  </metadata>
  <g
     inkscape:label="Layer 1"
     inkscape:groupmode="layer"
     id="layer1"
     transform="translate(-163.80275,-63.724931)">
    <path
       style="fill:#000000;stroke-width:1"
       d="m 231.36676,84.918631 4.66725,-6.3e-4 c 5.5126,-7.7e-4 5.48337,-0.006 6.70923,1.20592 1.1097,1.09708 1.21957,1.47216 1.2921,4.41105 0.0633,2.56551 -0.0613,3.72958 -0.48883,4.56767 -0.56673,1.11088 -1.87461,2.01312 -3.1945,2.20371 l -0.60325,0.0871 v 3.155809 c 0,4.18803 0.0752,3.98238 -2.36869,6.47409 l -1.82231,1.85794 v 7.78732 h 7.66574 l 1.80571,-1.77911 c 2.56951,-2.53165 2.39366,-2.46404 6.54572,-2.51647 l 3.25366,-0.0411 0.0729,-0.61577 c 0.15002,-1.26668 1.0357,-2.48672 2.28224,-3.14383 l 0.6625,-0.34924 h 3.1115 c 2.76263,0 3.1823,0.0273 3.74292,0.24352 1.27514,0.49176 2.37203,1.89492 2.55736,3.27139 l 0.08,0.5939 3.25513,0.0411 c 4.15376,0.0524 3.97755,-0.0153 6.54718,2.51648 l 1.80571,1.77911 h 2.95643 c 3.38966,0 3.6168,0.052 4.14214,0.94844 l 0.31317,0.53438 v 8.91565 c 0,8.61811 -0.008,8.93201 -0.25005,9.4058 -0.13753,0.26957 -0.44431,0.6102 -0.68174,0.75694 -0.40695,0.2515 -0.605,0.26679 -3.45582,0.26679 h -3.02413 l -1.80571,1.77912 c -2.56963,2.53177 -2.39342,2.46404 -6.54718,2.51648 l -3.25513,0.0411 -0.08,0.5939 c -0.17619,1.30864 -1.0495,2.51556 -2.29978,3.17831 l -0.635,0.33659 h -3.2385 -3.2385 l -0.6625,-0.34923 c -1.24654,-0.65711 -2.13222,-1.87715 -2.28224,-3.14383 l -0.0729,-0.61577 -3.25366,-0.0411 -3.25367,-0.0411 -0.75779,-0.35483 c -0.58742,-0.27505 -1.15969,-0.75331 -2.54544,-2.12725 l -1.78766,-1.77237 h -36.30022 l -1.78766,1.77242 c -1.38575,1.37394 -1.95802,1.8522 -2.54544,2.12725 l -0.75779,0.35483 -3.25366,0.0411 -3.25367,0.0411 -0.0729,0.61577 c -0.15002,1.26668 -1.0357,2.48672 -2.28224,3.14383 l -0.6625,0.34923 -3.048,0.0249 c -1.6764,0.0137 -3.19087,-0.0205 -3.3655,-0.0761 v 1e-5 c -1.58216,-0.50341 -2.78712,-1.89543 -2.99828,-3.46374 l -0.08,-0.5939 -3.25513,-0.0411 c -4.15375,-0.0524 -3.97755,0.0153 -6.54717,-2.51648 l -1.80572,-1.77912 h -3.02413 c -2.85082,0 -3.04887,-0.0153 -3.45582,-0.26679 -0.23742,-0.14674 -0.54421,-0.48737 -0.68174,-0.75694 -0.2417,-0.47379 -0.25005,-0.78769 -0.25005,-9.4058 v -8.91565 l 0.31317,-0.53438 c 0.52534,-0.89643 0.75248,-0.94844 4.14214,-0.94844 h 2.95643 l 1.80572,-1.77911 c 2.56962,-2.53177 2.39342,-2.46404 6.54717,-2.51648 l 3.25513,-0.0411 0.08,-0.5939 c 0.18205,-1.35211 1.09364,-2.57993 2.36328,-3.18308 0.69527,-0.33029 0.71317,-0.33183 3.8735,-0.33183 h 3.175 l 0.6625,0.34924 c 1.24654,0.65711 2.13222,1.87715 2.28224,3.14383 l 0.0729,0.61577 3.25367,0.0411 c 4.15206,0.0524 3.9762,-0.0152 6.54571,2.51647 l 1.80571,1.77911 h 7.66574 v -7.78732 l -1.82231,-1.85793 c -2.44393,-2.49171 -2.36869,-2.28606 -2.36869,-6.47409 v -3.155819 l -0.60325,-0.0871 c -1.43408,-0.20708 -2.69739,-1.14569 -3.31496,-2.46294 -0.33318,-0.71066 -0.33629,-0.74429 -0.33629,-3.63829 0,-3.59257 0.0791,-3.91228 1.25873,-5.08998 1.20561,-1.20361 1.1659,-1.19652 6.7014,-1.19652 h 4.67637 v -2.413 h -8.86332 c -9.76693,0 -9.60296,0.0118 -11.12527,-0.79771 -2.21725,-1.17899 -3.54432,-3.83084 -3.15991,-6.31435 0.3583,-2.3148 1.86147,-4.04976 4.37418,-5.04868 0.49424,-0.19649 1.39596,-0.22516 8.92048,-0.28367 l 8.37067,-0.0651 0.40447,-1.20662 c 0.68871,-2.05458 1.30758,-3.00224 2.52027,-3.8592 1.37332,-0.970459 1.98292,-1.132899 4.47667,-1.192869 2.40353,-0.0578 3.20775,0.0693 4.47463,0.707009 0.84736,0.42655 1.88651,1.40908 2.37931,2.24968 0.20475,0.34925 0.57917,1.23508 0.83205,1.9685 l 0.45977,1.3335 8.36675,0.0635 8.36675,0.0635 0.762,0.3047 c 2.3159,0.92605 3.81324,2.71254 4.162,4.96574 0.38441,2.48351 -0.94266,5.13536 -3.15991,6.31435 -1.52231,0.80947 -1.35834,0.79771 -11.12527,0.79771 h -8.86332 z"
       id="path909"
       sodipodi:nodetypes="cssssscsscccsscsscssscsscsscscsscsscsscccsscccssccsscccsscsssscsscsssscsscsscssscsscsscccsscsssssccscssscsssssscccsssscc" />
    <path
       style="fill:#e2dd10;fill-opacity:1;stroke-width:1"
       d="m 191.23479,141.94161 v -29.718 h -4.318 v 29.718 z m 72.009,-29.718 h -4.318 v 29.718 h 4.318 z m -95.377,21.31583 2.31775,0.0418 c 2.26767,0.0409 2.33169,0.0496 2.96296,0.39954 0.3702,0.20524 1.37087,1.08487 2.34773,2.06375 l 1.70253,1.70604 h 5.65503 v -6.47696 h -14.986 z m 86.995,4.21117 v -6.477 h -59.563 v 6.477 h 5.64061 l 1.78345,-1.76272 c 0.98089,-0.9695 2.04062,-1.89819 2.35494,-2.06375 l 0.5715,-0.30103 h 38.862 l 0.5715,0.30103 c 0.31433,0.16556 1.37405,1.09425 2.35494,2.06375 l 1.78345,1.76272 z m 27.432,-6.47698 h -14.986 v 6.477 h 5.65503 l 1.71273,-1.72374 c 1.03729,-1.04396 1.96316,-1.85762 2.34774,-2.0632 0.61072,-0.32647 0.72361,-0.34107 2.95275,-0.38183 l 2.31775,-0.0424 z m -105.09603,-14.85902 -1.71273,1.72376 c -1.03729,1.04395 -1.96316,1.85762 -2.34774,2.0632 -0.61072,0.32647 -0.72361,0.34107 -2.95275,0.38183 l -2.31775,0.0424 v 6.58382 h 14.986 v -10.79501 z m 72.02342,0 -1.78345,1.76273 c -0.98089,0.9695 -2.04061,1.89819 -2.35494,2.06375 l -0.5715,0.30102 -11.56875,0.073 -0.42695,-0.29053 c -0.23482,-0.15979 -0.5465,-0.45193 -0.69262,-0.64919 -0.26036,-0.35148 -0.26568,-0.47358 -0.26568,-6.096 v -5.73734 l 0.35646,-0.6985 c 0.24257,-0.47532 0.90195,-1.24682 2.06375,-2.41464 l 1.70729,-1.71615 v -5.648209 h -21.209 v 5.648209 l 1.70729,1.71615 c 1.1618,1.16782 1.82118,1.93932 2.06375,2.41464 l 0.35646,0.6985 v 5.73734 c 0,5.62242 -0.005,5.74452 -0.26568,6.096 -0.14612,0.19726 -0.4578,0.4894 -0.69262,0.64919 l -0.42695,0.29053 -11.56875,-0.073 -0.5715,-0.30102 c -0.31432,-0.16556 -1.37405,-1.09425 -2.35494,-2.06375 l -1.78345,-1.76273 h -5.64061 v 10.795 h 59.563 v -10.795 z m 33.07261,4.21118 -2.31775,-0.0424 c -2.22914,-0.0408 -2.34203,-0.0554 -2.95275,-0.38183 -0.38458,-0.20558 -1.31045,-1.01925 -2.34774,-2.0632 l -1.71273,-1.72376 h -5.65503 v 10.795 h 14.986 z m -72.07255,-31.706679 -0.0696,4.3815 h 29.857 l -0.0694,-4.3815 z m 17.08155,-4.1275 v -2.286 h -4.445 v 2.286 z m 21.6535,-6.35418 0.50541,-0.28625 c 1.23099,-0.69719 1.45047,-2.41539 0.42741,-3.34596 -0.7799,-0.7094 -0.37792,-0.68155 -9.84826,-0.68232 -5.34246,-4.3e-4 -8.91247,-0.0493 -9.18769,-0.12576 -0.81571,-0.22661 -1.17443,-0.77295 -1.83483,-2.79453 -1.07073,-3.27765 -1.24523,-3.429 -3.95357,-3.429 -2.66674,0 -2.84482,0.15489 -3.92017,3.40946 -0.66605,2.01581 -1.04003,2.5927 -1.8215,2.80975 -0.29535,0.082 -3.66307,0.12963 -9.20336,0.13008 -9.47034,7.6e-4 -9.06836,-0.0271 -9.84826,0.68232 -1.02306,0.93057 -0.80358,2.64877 0.42741,3.34596 l 0.50541,0.28625 z"
       id="path907"
       sodipodi:nodetypes="cccccccccccsssccccccccccssccssccccccssscccsssccccccssccssscssccccsscscsccsscccccccsssccccccccccccccccssssssssssscc" />
  </g>
</svg>
