<?xml version="1.0" encoding="UTF-8" standalone="no"?>
<svg
   xmlns:dc="http://purl.org/dc/elements/1.1/"
   xmlns:cc="http://creativecommons.org/ns#"
   xmlns:rdf="http://www.w3.org/1999/02/22-rdf-syntax-ns#"
   xmlns:svg="http://www.w3.org/2000/svg"
   xmlns="http://www.w3.org/2000/svg"
   xmlns:sodipodi="http://sodipodi.sourceforge.net/DTD/sodipodi-0.dtd"
   xmlns:inkscape="http://www.inkscape.org/namespaces/inkscape"
   width="87.515266mm"
   height="50.990288mm"
   viewBox="0 0 87.515266 50.990288"
   version="1.1"
   id="svg1348"
   inkscape:version="1.0.2 (e86c870879, 2021-01-15, custom)"
   sodipodi:docname="consumer.svg">
  <defs
     id="defs1342" />
  <sodipodi:namedview
     id="base"
     pagecolor="#ffffff"
     bordercolor="#666666"
     borderopacity="1.0"
     inkscape:pageopacity="0.0"
     inkscape:pageshadow="2"
     inkscape:zoom="1.979899"
     inkscape:cx="261.06705"
     inkscape:cy="172.68291"
     inkscape:document-units="mm"
     inkscape:current-layer="layer1"
     inkscape:document-rotation="0"
     showgrid="false"
     fit-margin-top="0"
     fit-margin-left="0"
     fit-margin-right="0"
     fit-margin-bottom="0"
     inkscape:window-width="1920"
     inkscape:window-height="1017"
     inkscape:window-x="-8"
     inkscape:window-y="-8"
     inkscape:window-maximized="1" />
  <metadata
     id="metadata1345">
    <rdf:RDF>
      <cc:Work
         rdf:about="">
        <dc:format>image/svg+xml</dc:format>
        <dc:type
           rdf:resource="http://purl.org/dc/dcmitype/StillImage" />
        <dc:title></dc:title>
      </cc:Work>
    </rdf:RDF>
  </metadata>
  <g
     inkscape:label="Layer 1"
     inkscape:groupmode="layer"
     id="layer1"
     transform="translate(-63.163549,-117.01281)">
    <path
       id="rect1679"
       style="font-variation-settings:normal;opacity:1;vector-effect:none;fill:#e3dd10;fill-opacity:1;stroke:none;stroke-width:1.065;stroke-linecap:round;stroke-linejoin:round;stroke-miterlimit:4;stroke-dasharray:none;stroke-dashoffset:0;stroke-opacity:1;stop-color:#000000;stop-opacity:1"
       d="m 75.650785,117.66093 -6.929923,10.37514 v 25.3534 h 13.999561 v -10.75111 h 4.682854 v 10.75111 h 29.023183 v -10.75111 h 4.68212 v 10.75111 h 19.87105 v -5.23365 a 7.5083565,5.0494677 0 0 0 1.40296,0.0885 7.5083565,5.0494677 0 0 0 7.50851,-5.04932 7.5083565,5.0494677 0 0 0 -2.55282,-3.79267 6.4048858,4.882275 0 0 0 1.21497,-2.86149 6.4048858,4.882275 0 0 0 -2.39922,-3.80949 4.4988902,3.8456808 0 0 0 0.59322,-1.9084 4.4988902,3.8456808 0 0 0 -4.49852,-3.84606 4.4988902,3.8456808 0 0 0 -1.2691,0.15654 v -0.44839 l -6.66294,-9.02412 h -24.51075 l -4.3003,6.44423 -4.7582,-6.44423 z m -1.829399,16.16544 h 3.723173 v 4.36832 h -3.723173 z m 9.37888,0 h 3.723168 v 4.36832 h -3.723168 z m 24.327154,0 h 3.72317 v 4.36832 h -3.72317 z m 9.37888,0 h 3.72317 v 4.36832 h -3.72317 z m -43.084914,8.98827 h 3.723173 v 4.36833 h -3.723173 z m 33.706034,0 h 3.72317 v 4.36833 h -3.72317 z" />
    <path
       id="path1366"
       style="color:#000000;font-style:normal;font-variant:normal;font-weight:normal;font-stretch:normal;font-size:medium;line-height:normal;font-family:sans-serif;font-variant-ligatures:normal;font-variant-position:normal;font-variant-caps:normal;font-variant-numeric:normal;font-variant-alternates:normal;font-variant-east-asian:normal;font-feature-settings:normal;font-variation-settings:normal;text-indent:0;text-align:start;text-decoration:none;text-decoration-line:none;text-decoration-style:solid;text-decoration-color:#000000;letter-spacing:normal;word-spacing:normal;text-transform:none;writing-mode:lr-tb;direction:ltr;text-orientation:mixed;dominant-baseline:auto;baseline-shift:baseline;text-anchor:start;white-space:normal;shape-padding:0;shape-margin:0;inline-size:0;clip-rule:nonzero;display:inline;overflow:visible;visibility:visible;opacity:1;isolation:auto;mix-blend-mode:normal;color-interpolation:sRGB;color-interpolation-filters:linearRGB;solid-color:#000000;solid-opacity:1;vector-effect:none;fill:#000000;fill-opacity:1;fill-rule:nonzero;stroke:none;stroke-width:1;stroke-linecap:round;stroke-linejoin:miter;stroke-miterlimit:4;stroke-dasharray:none;stroke-dashoffset:0;stroke-opacity:1;color-rendering:auto;image-rendering:auto;shape-rendering:auto;text-rendering:auto;enable-background:accumulate;stop-color:#000000;stop-opacity:1"
       d="m 76.055287,117.01285 c -0.01831,-1.8e-4 -0.03659,3.1e-4 -0.05486,0.001 -0.003,2.2e-4 -0.0058,3.7e-4 -0.0088,7.5e-4 -0.0042,3.7e-4 -0.0083,0.001 -0.01243,0.001 -0.02404,0.003 -0.04798,0.006 -0.07169,0.011 -0.0026,3.7e-4 -0.0054,0.001 -0.0081,0.002 -0.205374,0.043 -0.383511,0.16975 -0.491546,0.34964 l -8.452844,12.17967 c -0.0019,0.002 -0.0034,0.004 -0.0051,0.007 l -0.0066,0.0103 c -0.03341,0.0478 -0.06114,0.0994 -0.08266,0.15361 -0.0015,0.004 -0.003,0.008 -0.0044,0.0124 -0.0039,0.009 -0.0075,0.019 -0.01097,0.0285 -0.0015,0.005 -0.003,0.0107 -0.0044,0.0161 -0.003,0.009 -0.006,0.0189 -0.0088,0.0285 -0.0011,0.004 -0.0019,0.008 -0.003,0.0117 -0.0022,0.0107 -0.0046,0.0214 -0.0066,0.0322 -3.75e-4,0.003 -0.0011,0.005 -0.0015,0.007 -0.0026,0.0124 -0.0047,0.0248 -0.0066,0.0373 0,7.5e-4 0,0.002 0,0.002 -0.0015,0.0107 -0.0026,0.0214 -0.0037,0.0322 -0.0034,0.0372 -0.0042,0.0746 -0.0022,0.11191 -4e-6,0.001 -4e-6,0.003 0,0.004 0.003,0.0437 0.0094,0.087 0.01974,0.12947 v 7.5e-4 c 2.43e-4,0.001 3.74e-4,0.002 7.49e-4,0.003 0.003,0.0125 0.0065,0.0249 0.01022,0.0373 0.0015,0.004 0.003,0.009 0.0044,0.0132 0.0034,0.01 0.0066,0.0196 0.01022,0.0292 2.43e-4,0.001 3.74e-4,0.002 7.49e-4,0.003 0.0037,0.0101 0.0076,0.0201 0.01168,0.03 0.0044,0.0103 0.009,0.0206 0.01389,0.0307 0.003,0.007 0.0062,0.0137 0.0095,0.0205 l 7.49e-4,7.5e-4 c 0.0049,0.01 0.01004,0.0191 0.01535,0.0285 0.0047,0.008 0.0096,0.0167 0.01464,0.0249 0.01056,0.017 0.02176,0.0336 0.03363,0.0497 0.017,0.0232 0.03532,0.0454 0.05486,0.0666 0.0011,0.001 0.0026,0.003 0.0037,0.004 0.0022,0.003 0.0049,0.005 0.0073,0.008 0.0074,0.007 0.01498,0.0148 0.02266,0.0219 0.01045,0.0101 0.0212,0.0198 0.03217,0.0293 7.49e-4,3.8e-4 0.0015,10e-4 0.0022,10e-4 0.01097,0.009 0.02217,0.0179 0.03363,0.0263 l 7.49e-4,7.5e-4 c 0.003,0.003 0.0063,0.005 0.0095,0.007 0.0034,0.002 0.0068,0.004 0.01026,0.007 0.03562,0.0249 0.07329,0.0467 0.112646,0.0651 0.003,0.001 0.0058,0.003 0.0088,0.004 0.03524,0.016 0.0717,0.0291 0.108986,0.0395 0.0039,0.001 0.0078,0.002 0.01168,0.003 0.06163,0.016 0.125045,0.0241 0.18872,0.0241 h 0.409622 v 21.87893 h -4.053064 c -0.417165,-7.5e-4 -0.755499,0.33771 -0.754873,0.75488 0.0011,0.41602 0.33885,0.75257 0.754873,0.75194 h 31.28707 v 2.80226 c -0.423075,0.18043 -0.727081,0.60357 -0.727081,1.08477 v 1.23325 c 0,0.43582 0.252305,0.81914 0.613701,1.02259 0.237763,3.64777 3.101697,6.58793 6.707557,6.94894 0.17128,0.4417 0.60173,0.76439 1.09647,0.76439 h 1.23326 c 0.49097,0 0.91961,-0.31763 1.09354,-0.75414 0.0653,0.018 0.1327,0.0271 0.20042,0.0271 h 18.59172 c 0.067,-1.7e-4 0.13365,-0.009 0.19823,-0.0271 0.17469,0.43651 0.60476,0.75414 1.09574,0.75414 h 1.23032 c 0.49474,0 0.92737,-0.32269 1.0994,-0.76439 3.60514,-0.36198 6.46968,-3.3019 6.70756,-6.94894 0.3614,-0.20345 0.6137,-0.58677 0.6137,-1.02259 v -1.23325 c 0,-0.48201 -0.3051,-0.90559 -0.72927,-1.0855 v -2.80153 h 14.88683 c 0.41602,7.5e-4 0.75388,-0.33592 0.75487,-0.75194 7.5e-4,-0.41717 -0.33771,-0.75551 -0.75487,-0.75488 h -4.29884 v -3.8424 h 0.75488 c 0.0315,3e-5 0.0631,-0.002 0.0944,-0.006 0,0 3.59253,-0.46653 4.71577,-3.82046 1.04959,-3.13393 -0.98859,-5.2209 -1.64215,-5.83637 0.4084,-0.61569 1.11212,-1.88824 0.50033,-3.80364 -0.38094,-1.19261 -1.02239,-1.9455 -1.58655,-2.37507 -0.16495,-0.1256 -0.17702,-0.084 -0.32624,-0.16312 0.1761,-0.29977 0.30141,-0.34504 0.41181,-0.88727 0.21424,-1.05225 0.0478,-2.54342 -1.16376,-4.09695 -1.46037,-1.87251 -3.96921,-1.73745 -4.21325,-1.71968 -0.0697,-0.005 -0.31572,-0.0127 -0.681,0.0124 l -6.5737,-8.77396 c -7.5e-4,-0.001 -10e-4,-0.003 -0.002,-0.004 l -0.003,-0.004 -7.5e-4,-7.5e-4 -7.5e-4,-7.4e-4 c -0.018,-0.0246 -0.0376,-0.048 -0.0585,-0.0702 -3.7e-4,-3.7e-4 -10e-4,-0.001 -10e-4,-0.001 -0.01,-0.0103 -0.0202,-0.0203 -0.0307,-0.03 -0.002,-0.002 -0.004,-0.004 -0.006,-0.006 -0.003,-0.002 -0.005,-0.004 -0.008,-0.007 -0.008,-0.008 -0.0169,-0.0153 -0.0256,-0.0227 -0.008,-0.007 -0.0169,-0.0133 -0.0256,-0.0197 -0.001,-7.5e-4 -0.002,-0.002 -0.003,-0.002 -0.002,-0.002 -0.004,-0.003 -0.007,-0.005 -0.0397,-0.0284 -0.0821,-0.0529 -0.12654,-0.0732 -10e-4,-3.7e-4 -0.002,-0.001 -0.004,-0.001 -0.009,-0.004 -0.0175,-0.008 -0.0263,-0.0117 -0.004,-0.002 -0.007,-0.003 -0.011,-0.004 -3.8e-4,-2.4e-4 -0.001,-3.7e-4 -0.002,-7.5e-4 -7.5e-4,-2.5e-4 -0.001,-3.7e-4 -0.002,-7.5e-4 -0.006,-0.003 -0.0126,-0.005 -0.019,-0.007 -0.003,-0.001 -0.005,-0.002 -0.008,-0.003 -0.0321,-0.0107 -0.0648,-0.0193 -0.098,-0.0256 -10e-4,-2.5e-4 -0.002,-3.8e-4 -0.003,-7.5e-4 -0.007,-10e-4 -0.0141,-0.003 -0.0212,-0.004 -0.003,-3.7e-4 -0.005,-0.001 -0.008,-0.002 -0.004,-3.7e-4 -0.008,-10e-4 -0.0117,-10e-4 -0.002,-2.6e-4 -0.003,-3.8e-4 -0.005,-7.5e-4 -0.006,-7.5e-4 -0.0127,-10e-4 -0.019,-0.002 -0.003,-2.6e-4 -0.005,-3.7e-4 -0.008,-7.5e-4 -0.0231,-0.002 -0.0463,-0.003 -0.0695,-0.003 H 109.7606 c -0.0183,-1.8e-4 -0.0366,3.2e-4 -0.0549,0.002 -0.003,2.3e-4 -0.006,3.8e-4 -0.009,7.5e-4 -0.004,3.8e-4 -0.008,0.001 -0.0124,0.002 -0.0241,0.003 -0.048,0.006 -0.0717,0.011 -0.003,3.8e-4 -0.005,0.001 -0.008,0.001 -0.20537,0.043 -0.38351,0.16975 -0.49154,0.34964 l -3.73927,5.38799 -3.97333,-5.44431 c -0.0562,-0.0769 -0.12643,-0.14239 -0.20701,-0.19311 -0.008,-0.005 -0.016,-0.01 -0.0241,-0.0146 -0.005,-0.003 -0.009,-0.005 -0.0139,-0.008 -0.004,-0.002 -0.007,-0.003 -0.011,-0.005 -0.01,-0.005 -0.0194,-0.0104 -0.0292,-0.0154 -0.004,-0.001 -0.007,-0.003 -0.011,-0.004 -0.0368,-0.0172 -0.075,-0.0314 -0.11411,-0.0424 -0.009,-0.002 -0.018,-0.005 -0.0271,-0.007 -0.006,-10e-4 -0.0112,-0.003 -0.0168,-0.004 h -7.5e-4 c -0.003,-7.5e-4 -0.007,-0.001 -0.0102,-0.002 h -7.5e-4 c -0.001,-2.5e-4 -0.002,-3.7e-4 -0.003,-7.5e-4 -0.01,-0.002 -0.02,-0.004 -0.03,-0.005 -0.004,-3.7e-4 -0.007,-0.001 -0.011,-0.001 -0.002,-2.5e-4 -0.003,-3.7e-4 -0.005,-7.5e-4 -0.004,-3.7e-4 -0.007,-0.001 -0.011,-0.001 -0.005,-3.8e-4 -0.0107,-10e-4 -0.0161,-0.002 -0.002,-2.5e-4 -0.004,-3.8e-4 -0.006,-7.5e-4 -0.002,-1e-5 -0.004,-1e-5 -0.007,0 -0.005,-3.8e-4 -0.0107,-0.001 -0.0161,-0.002 -0.005,-3e-4 -0.0107,-3.7e-4 -0.0161,-7.5e-4 -0.008,-1.4e-4 -0.0166,-1.4e-4 -0.0249,0 z m 0.394994,1.50902 h 22.900058 l -7.447801,10.7299 H 69.002476 Z m 33.706029,0 h 22.90006 l -7.4478,10.7299 h -22.90006 z m 24.36373,0.53397 5.53721,7.38929 c -0.66883,0.24994 -1.36199,0.66566 -1.9062,1.36345 -1.21161,1.55353 -1.378,3.0447 -1.16377,4.09695 0.11039,0.54223 0.23573,0.58751 0.41182,0.88728 -0.14922,0.0791 -0.16131,0.0375 -0.32624,0.16311 -0.56418,0.42957 -1.20562,1.18247 -1.58655,2.37508 -0.6118,1.91539 0.0919,3.18794 0.50032,3.80363 -0.65357,0.61547 -2.69172,2.70244 -1.64214,5.83638 1.12325,3.35393 4.71577,3.82045 4.71577,3.82045 0.0313,0.004 0.0628,0.006 0.0944,0.006 h 0.7461 v 3.8424 h -13.07133 c 3.7e-4,-0.01 7.5e-4,-0.02 7.5e-4,-0.03 v -22.47435 z m -33.71408,0.0117 3.59224,4.91985 c 0.0216,0.0297 0.0453,0.0578 0.0709,0.0841 l -3.80802,5.48674 c -0.002,0.002 -0.003,0.004 -0.005,0.007 l -0.007,0.0103 c -0.0334,0.0478 -0.0611,0.0994 -0.0827,0.1536 -10e-4,0.004 -0.003,0.008 -0.004,0.0124 -0.004,0.009 -0.007,0.0189 -0.011,0.0285 -0.002,0.005 -0.003,0.0107 -0.004,0.0161 -0.003,0.009 -0.006,0.0189 -0.009,0.0285 -0.001,0.004 -0.002,0.008 -0.003,0.0117 -0.002,0.0107 -0.005,0.0214 -0.007,0.0322 -3.7e-4,0.003 -0.001,0.005 -0.001,0.007 -0.003,0.0124 -0.005,0.0248 -0.007,0.0373 0,7.5e-4 0,0.001 0,0.002 -0.001,0.0107 -0.003,0.0214 -0.004,0.0322 -0.003,0.0372 -0.004,0.0746 -0.002,0.11191 0,0.001 0,0.003 0,0.004 0.003,0.0436 0.009,0.087 0.0197,0.12947 v 7.5e-4 c 2.4e-4,0.001 3.7e-4,0.002 7.5e-4,0.003 0.003,0.0125 0.007,0.0249 0.0102,0.0373 0.002,0.004 0.003,0.009 0.004,0.0132 0.003,0.01 0.007,0.0196 0.0102,0.0293 2.4e-4,0.001 3.7e-4,0.002 7.5e-4,0.003 0.004,0.0101 0.008,0.0201 0.0117,0.03 0.004,0.0103 0.009,0.0206 0.0139,0.0307 0.003,0.007 0.006,0.0137 0.01,0.0205 l 7.5e-4,7.5e-4 c 0.005,0.01 0.01,0.0191 0.0153,0.0285 0.005,0.008 0.01,0.0167 0.0147,0.0249 0.0106,0.017 0.0218,0.0336 0.0336,0.0497 0.017,0.0232 0.0353,0.0455 0.0549,0.0666 10e-4,0.001 0.003,0.003 0.004,0.004 0.002,0.003 0.005,0.005 0.007,0.008 0.007,0.007 0.015,0.0148 0.0227,0.0219 0.0105,0.0101 0.0212,0.0198 0.0322,0.0292 7.5e-4,3.8e-4 10e-4,0.001 0.002,0.002 0.011,0.009 0.0222,0.0179 0.0336,0.0263 l 7.5e-4,7.5e-4 c 0.003,0.003 0.006,0.005 0.01,0.007 0.003,0.002 0.007,0.004 0.0103,0.007 0.0356,0.0249 0.0733,0.0467 0.11264,0.0651 0.003,0.001 0.006,0.003 0.009,0.004 0.0352,0.016 0.0717,0.0291 0.10898,0.0395 0.004,0.001 0.008,0.002 0.0117,0.003 0.0616,0.016 0.12504,0.0241 0.18872,0.0241 h 0.40962 v 21.87893 h -8.554515 c 3.74e-4,-0.01 7.49e-4,-0.02 7.49e-4,-0.03 v -22.47434 z m 38.4262,28.22294 c -0.0305,-0.004 -2.6341,-0.33657 -3.45839,-2.79786 -0.8828,-2.63594 1.58656,-4.69675 1.58656,-4.69675 0.32677,-0.26999 0.36677,-0.75624 0.0885,-1.07599 0,0 -1.0777,-1.20968 -0.52812,-2.93026 0.2904,-0.90914 0.7222,-1.37364 1.06428,-1.6341 0.34208,-0.26046 0.53105,-0.28966 0.53105,-0.28966 0.55857,-0.1255 0.77888,-0.80333 0.40084,-1.23326 0,0 -0.31338,-0.3546 -0.45058,-1.02844 -0.13719,-0.67385 -0.106,-1.61086 0.87337,-2.86662 0.92491,-1.18593 2.97781,-1.14182 2.97781,-1.14182 0.0312,0.002 0.0625,0.002 0.0936,0 0,0 2.0529,-0.0441 2.97781,1.14182 0.97937,1.25576 1.01057,2.19277 0.87337,2.86662 -0.13719,0.67384 -0.45058,1.02844 -0.45058,1.02844 -0.37804,0.42993 -0.15773,1.10776 0.40084,1.23326 0,0 0.18897,0.0292 0.53105,0.28966 0.34208,0.26046 0.7739,0.72496 1.06428,1.6341 0.54958,1.72058 -0.52812,2.93026 -0.52812,2.93026 -0.27826,0.31975 -0.23827,0.806 0.0885,1.07599 0,0 2.46936,2.06081 1.58656,4.69675 -0.82431,2.46129 -3.42792,2.79403 -3.45839,2.79786 z m -69.753496,-16.5297 h 22.135673 v 21.84895 c 4.4e-5,0.01 2.92e-4,0.02 7.49e-4,0.03 h -3.298922 c 0.03881,-0.0927 0.0587,-0.19214 0.05852,-0.29259 v -9.53541 c 7.49e-4,-0.41715 -0.337723,-0.75547 -0.754873,-0.75488 h -4.813056 c -0.41715,-7.5e-4 -0.755465,0.33773 -0.754877,0.75488 v 9.52663 c -2.17e-4,0.10366 0.02094,0.20626 0.06218,0.30137 H 69.478679 Z m 33.706036,0 h 22.13567 v 21.84895 c 4e-5,0.01 2.9e-4,0.02 7.5e-4,0.03 h -3.29892 c 0.0388,-0.0927 0.0587,-0.19214 0.0585,-0.29259 v -9.53541 c 7.5e-4,-0.41715 -0.33772,-0.75547 -0.75487,-0.75488 h -4.81306 c -0.41715,-7.5e-4 -0.75546,0.33773 -0.75487,0.75488 v 9.52663 c -2.2e-4,0.10366 0.0209,0.20626 0.0622,0.30137 h -12.63537 z m -29.368433,2.30852 c -0.414865,0.001 -0.750926,0.33708 -0.751952,0.75195 v 4.25495 c 0.0011,0.41486 0.337087,0.75092 0.751952,0.75194 h 3.89214 0.05559 c 0.02857,7.5e-4 0.05713,-3.3e-4 0.08558,-0.003 0.02884,-0.004 0.0574,-0.01 0.08558,-0.0168 0.02801,-0.007 0.0556,-0.015 0.08266,-0.0249 0.110062,-0.0393 0.20948,-0.10365 0.290393,-0.18798 0.0393,-0.042 0.07366,-0.0884 0.102406,-0.13825 0.045,-0.074 0.07692,-0.15512 0.09436,-0.23992 0.0053,-0.0285 0.009,-0.0574 0.01097,-0.0863 7.49e-4,-0.0183 7.49e-4,-0.0366 0,-0.0548 v -4.25495 c -0.0011,-0.41486 -0.337087,-0.75092 -0.751948,-0.75195 z m 9.424229,0 c -0.416007,-7.5e-4 -0.753847,0.33594 -0.754877,0.75195 v 4.25495 c 0.0011,0.416 0.33887,0.75253 0.754877,0.75194 h 3.889946 0.05486 c 0.02955,7.5e-4 0.05909,-2.1e-4 0.08851,-0.003 0.02809,-0.004 0.05593,-0.01 0.08339,-0.0168 0.02899,-0.007 0.05757,-0.0149 0.08558,-0.0249 0.109013,-0.0397 0.207389,-0.10403 0.287467,-0.18798 0.04032,-0.0419 0.07567,-0.0883 0.105332,-0.13825 0.04372,-0.0742 0.0744,-0.15535 0.0907,-0.23992 0.0053,-0.0285 0.009,-0.0574 0.01097,-0.0863 0.0015,-0.0182 0.0026,-0.0366 0.003,-0.0548 v -4.25495 c -0.0011,-0.41601 -0.338869,-0.75254 -0.754877,-0.75195 z m 24.283994,0 c -0.41572,-1.8e-4 -0.75311,0.33623 -0.75414,0.75195 v 4.25495 c 0.001,0.41571 0.33842,0.75213 0.75414,0.75194 h 3.88995 0.0556 c 0.0286,7.5e-4 0.0571,-3.3e-4 0.0856,-0.003 0.0288,-0.004 0.0574,-0.01 0.0856,-0.0168 0.028,-0.007 0.0556,-0.015 0.0827,-0.0249 0.11006,-0.0393 0.20948,-0.10365 0.29039,-0.18798 0.0393,-0.042 0.0737,-0.0884 0.10241,-0.13825 0.045,-0.074 0.0769,-0.15512 0.0944,-0.23992 0.005,-0.0285 0.009,-0.0574 0.011,-0.0863 7.5e-4,-0.0183 7.5e-4,-0.0366 0,-0.0548 v -4.25495 c -10e-4,-0.41486 -0.33709,-0.75092 -0.75195,-0.75195 z m 9.42204,0 c -0.41601,-7.5e-4 -0.75385,0.33594 -0.75488,0.75195 v 4.25495 c 0.001,0.416 0.33887,0.75253 0.75488,0.75194 h 3.88994 0.0549 c 0.0296,7.5e-4 0.0591,-2.1e-4 0.0885,-0.003 0.0281,-0.004 0.0559,-0.01 0.0834,-0.0168 0.029,-0.007 0.0576,-0.0149 0.0856,-0.0249 0.10901,-0.0397 0.20739,-0.10403 0.28747,-0.18798 0.0403,-0.0419 0.0757,-0.0883 0.10533,-0.13825 0.0437,-0.0742 0.0744,-0.15535 0.0907,-0.23992 0.005,-0.0285 0.009,-0.0574 0.011,-0.0863 10e-4,-0.0182 0.003,-0.0366 0.003,-0.0548 v -4.25495 c -0.001,-0.41601 -0.33887,-0.75254 -0.75488,-0.75195 z m -42.376121,1.50682 h 2.438714 v 2.7452 h -2.438714 z m 9.42496,0 h 2.437983 v 2.7452 h -2.437983 z m 24.281071,0 h 2.43872 v 2.7452 h -2.43872 z m 9.42496,0 h 2.43798 v 2.7452 h -2.43798 z m -43.885133,7.48072 c -0.416007,0.001 -0.75254,0.33887 -0.751952,0.75488 v 4.25202 c -7.49e-4,0.416 0.335945,0.75384 0.751952,0.75487 h 3.947729 c 0.02861,-3.2e-4 0.05719,-0.002 0.08558,-0.006 0.0288,-0.004 0.05739,-0.009 0.08558,-0.0161 0.02801,-0.007 0.0556,-0.015 0.08266,-0.0249 0.109852,-0.0387 0.209247,-0.10226 0.290393,-0.18579 0.0393,-0.042 0.07366,-0.0884 0.102406,-0.13825 0.04531,-0.0749 0.07724,-0.15704 0.09436,-0.24285 0.0053,-0.0283 0.009,-0.0569 0.01097,-0.0856 7.49e-4,-0.0185 7.49e-4,-0.0371 0,-0.0556 v -4.25202 c 7.49e-4,-0.41601 -0.335941,-0.75385 -0.751948,-0.75488 z m 33.708223,0 c -0.41686,-1.8e-4 -0.75473,0.33801 -0.75414,0.75488 v 4.25202 c -7.5e-4,0.41686 0.33728,0.75506 0.75414,0.75487 h 3.94554 c 0.0286,-3.2e-4 0.0572,-0.002 0.0856,-0.006 0.0288,-0.004 0.0574,-0.009 0.0856,-0.0161 0.028,-0.007 0.0556,-0.015 0.0827,-0.0249 0.10985,-0.0387 0.20925,-0.10226 0.29039,-0.18579 0.0393,-0.042 0.0737,-0.0884 0.10241,-0.13825 0.0453,-0.0749 0.0772,-0.15704 0.0944,-0.24285 0.005,-0.0283 0.009,-0.0569 0.011,-0.0856 7.5e-4,-0.0185 7.5e-4,-0.0371 0,-0.0556 v -4.25202 c 7.5e-4,-0.41601 -0.33594,-0.75385 -0.75195,-0.75488 z m -32.954081,1.50683 h 2.438714 v 2.74519 h -2.438714 z m 8.988276,0 h 3.309161 v 8.78346 c 4.4e-5,0.10051 0.02019,0.19998 0.05925,0.29259 h -3.431315 c 0.04148,-0.0951 0.06289,-0.19765 0.06291,-0.30137 z m 24.717755,0 h 2.43872 v 2.74519 h -2.43872 z m 8.98828,0 h 3.30916 v 8.78346 c 4e-5,0.10051 0.0202,0.19998 0.0592,0.29259 h -3.43132 c 0.0415,-0.0951 0.0629,-0.19765 0.0629,-0.30137 z m 26.04756,5.23365 v 3.8424 h -1.90474 v -3.8424 z m -46.59961,5.34922 h 2.50747 v 2.70936 h -2.50747 z m 4.01429,0 h 27.98596 v 2.80152 c -0.4245,0.17976 -0.73001,0.60326 -0.73001,1.0855 v 1.23326 c 0,0.40365 0.2145,0.76565 0.53324,0.9787 -0.15037,0.557 -0.57527,0.9895 -1.12134,1.16011 -0.2171,-0.23136 -0.52153,-0.38037 -0.85508,-0.38037 h -1.23033 c -0.49098,0 -0.92105,0.31906 -1.09574,0.75634 -0.0646,-0.0175 -0.13128,-0.0264 -0.19823,-0.0263 h -18.59171 c -0.0677,-2e-5 -0.13514,0.009 -0.20043,0.0271 -0.17376,-0.43761 -0.60232,-0.75707 -1.09354,-0.75707 h -1.23326 c -0.33341,0 -0.63651,0.14917 -0.85289,0.38037 -0.54619,-0.17089 -0.96988,-0.60414 -1.11987,-1.16158 0.31695,-0.21333 0.53031,-0.57495 0.53031,-0.97724 v -1.23325 c 0,-0.48088 -0.30444,-0.90341 -0.72708,-1.08404 z m 29.49278,0 h 2.50455 v 2.70936 h -2.50455 z m -34.234151,4.21618 h 3.961628 v 0.57201 h -3.961628 z m 33.504151,0 h 3.96455 v 0.57201 h -3.96455 z m -32.872162,2.08176 h 2.805177 c 0.244125,1.18319 1.141795,2.12711 2.296075,2.43944 v 2.81835 c -2.695615,-0.37344 -4.809493,-2.53062 -5.101252,-5.25779 z m 33.396622,0 h 2.80445 c -0.29167,2.72621 -2.40409,4.88321 -5.09833,5.25779 v -2.81835 c 1.15377,-0.31233 2.05008,-1.25625 2.29388,-2.43944 z m -26.78854,2.0898 h 0.57493 v 3.96163 h -0.49813 c -0.003,-0.10694 -0.0296,-0.21191 -0.0768,-0.30795 z m 22.4129,0 h 0.57201 v 3.90897 c -0.0184,0.0167 -0.036,0.0343 -0.0527,0.0527 h -0.51934 z m -20.33115,0.7183 c 0.0385,0.006 0.0774,0.009 0.11631,0.009 h 18.59171 c 0.038,-7e-5 0.0759,-0.003 0.11338,-0.009 v 2.52283 c -0.0375,-0.006 -0.0754,-0.009 -0.11338,-0.009 h -18.59171 c -0.039,1.6e-4 -0.0778,0.003 -0.11631,0.01 z"
       sodipodi:nodetypes="csccccccccccccccccccccccccccccccccsccccccccccccccccccccccccssccssccccssccsscccccccccscsscsscccccccscccccsccccssccscccccccscccscccccccsccccccscccccsssccccccccccccccccccccsscsscsccccccccccccccccccccccccccccccccccccccsccccccccccccccccccccccccsccssccssccssccssccscccccccccccccccccccccccccccccccccccccccccccccccccccccccccccccccccccccccccccccccccccccccccccccccccccccccccccccccccccccccccccccccccccccccccccccccccccccccccccccccccccccccccccccccccccccccccccssccssccccssccsscccccccccccccccccccccccccccccccccccccccccccccccc" />
  </g>
</svg>
