<?xml version="1.0" encoding="UTF-8" standalone="no"?>
<svg
   xmlns:dc="http://purl.org/dc/elements/1.1/"
   xmlns:cc="http://creativecommons.org/ns#"
   xmlns:rdf="http://www.w3.org/1999/02/22-rdf-syntax-ns#"
   xmlns:svg="http://www.w3.org/2000/svg"
   xmlns="http://www.w3.org/2000/svg"
   xmlns:sodipodi="http://sodipodi.sourceforge.net/DTD/sodipodi-0.dtd"
   xmlns:inkscape="http://www.inkscape.org/namespaces/inkscape"
   width="63.667938mm"
   height="38.113949mm"
   viewBox="0 0 63.667938 38.113949"
   version="1.1"
   id="svg917"
   inkscape:version="1.0.2 (e86c870879, 2021-01-15, custom)"
   sodipodi:docname="external-grid.svg">
  <defs
     id="defs911" />
  <sodipodi:namedview
     id="base"
     pagecolor="#ffffff"
     bordercolor="#666666"
     borderopacity="1.0"
     inkscape:pageopacity="0.0"
     inkscape:pageshadow="2"
     inkscape:zoom="2"
     inkscape:cx="87.410917"
     inkscape:cy="186.40934"
     inkscape:document-units="mm"
     inkscape:current-layer="layer1"
     inkscape:document-rotation="0"
     showgrid="false"
     fit-margin-top="0"
     fit-margin-left="0"
     fit-margin-right="0"
     fit-margin-bottom="0"
     inkscape:window-width="1920"
     inkscape:window-height="1017"
     inkscape:window-x="-8"
     inkscape:window-y="-8"
     inkscape:window-maximized="1" />
  <metadata
     id="metadata914">
    <rdf:RDF>
      <cc:Work
         rdf:about="">
        <dc:format>image/svg+xml</dc:format>
        <dc:type
           rdf:resource="http://purl.org/dc/dcmitype/StillImage" />
        <dc:title></dc:title>
      </cc:Work>
    </rdf:RDF>
  </metadata>
  <g
     inkscape:label="Layer 1"
     inkscape:groupmode="layer"
     id="layer1"
     transform="translate(-35.559065,23.812501)">
    <path
       id="rect997"
       style="fill:#000010;fill-opacity:1;stroke:none;stroke-width:0.296333;stroke-miterlimit:8;stroke-opacity:1;stop-color:#000000"
       d="m 46.491217,-23.812501 c -4.853564,-8.2e-5 -8.788174,3.934529 -8.788092,8.788093 V 6.8414393 h -0.04393 c -1.163399,0 -2.10013,0.936215 -2.10013,2.099614 v 3.2602647 c 0,1.163402 0.936731,2.10013 2.10013,2.10013 h 7.212481 c 1.163399,0 2.10013,-0.936728 2.10013,-2.10013 V 8.9410533 c 0,-1.163399 -0.936731,-2.099614 -2.10013,-2.099614 h -0.04393 V -15.024408 h 0.0031 c 0.0031,-0.915163 0.74553,-1.661914 1.661398,-1.661914 0.917792,0 1.661914,0.744124 1.661914,1.661914 V 0.09456463 c -8.2e-5,4.85356367 3.934529,8.78817767 8.788093,8.78809567 4.853366,-2.04e-4 8.787659,-3.934733 8.787577,-8.78809567 V -15.024408 h 0.0031 c 0.0031,-0.915163 0.74553,-1.661914 1.661398,-1.661914 0.917792,0 1.661914,0.744124 1.661914,1.661914 V 0.09456463 c -8.2e-5,4.85356367 3.934529,8.78817767 8.788093,8.78809567 4.853366,-2.04e-4 8.787659,-3.934733 8.787577,-8.78809567 V -15.024408 h 0.0031 c 0.0031,-0.915163 0.74553,-1.661914 1.661398,-1.661914 0.917792,0 1.661914,0.744124 1.661914,1.661914 V 6.8414393 h -0.04393 c -1.163399,0 -2.10013,0.936215 -2.10013,2.099614 v 3.2602647 c 0,1.163402 0.936731,2.10013 2.10013,2.10013 h 7.212481 c 1.163399,0 2.10013,-0.936728 2.10013,-2.10013 V 8.9410533 c 0,-1.163399 -0.936731,-2.099614 -2.10013,-2.099614 h -0.04393 V -15.024408 c 8.2e-5,-4.853363 -3.934214,-8.78789 -8.787577,-8.788093 -4.853565,-8.2e-5 -8.788175,3.934529 -8.788093,8.788093 V 0.09456463 H 76.18086 l 3.323828,0.0057 c 0,0.91778897 -0.744122,1.66191397 -1.661914,1.66191397 -0.917787,0 -1.661914,-0.749811 -1.661914,-1.66759997 V -15.024408 c 8.2e-5,-4.853363 -3.934214,-8.78789 -8.787577,-8.788093 -4.853565,-8.2e-5 -8.788175,3.934529 -8.788093,8.788093 V 0.09456463 h -3.326413 l 3.323828,0.0057 c 0,0.91778897 -0.744122,1.66191397 -1.661914,1.66191397 -0.917787,0 -1.661914,-0.749811 -1.661914,-1.66759997 V -15.024408 c 8.2e-5,-4.853363 -3.934214,-8.78789 -8.787578,-8.788093 z" />
    <path
       id="path990"
       style="fill:#e3dd10;fill-opacity:1;stroke:none;stroke-width:0.296333;stroke-miterlimit:8;stroke-opacity:1;stop-color:#000000"
       d="m 46.491217,-21.727358 c -3.726508,-6.2e-5 -6.703012,2.976442 -6.702948,6.70295 V 6.8414393 h 2.954342 V -15.024408 c -1.8e-5,-0.152964 0.0168,-0.305465 0.05013,-0.454754 0.233024,-1.832273 1.80373,-3.292304 3.699515,-3.292304 2.044986,0 3.747058,1.702078 3.747058,3.747058 V 0.09456463 c -6.3e-5,3.72651097 2.976441,6.70301167 6.702949,6.70295167 3.726352,-1.57e-4 6.702491,-2.9765997 6.702436,-6.70295167 V -15.024408 c -1.9e-5,-0.152964 0.0168,-0.305465 0.05013,-0.454754 0.233024,-1.832273 1.803731,-3.292304 3.699515,-3.292304 2.044986,0 3.747058,1.702078 3.747058,3.747058 V 0.09456463 c -6.3e-5,3.72651097 2.976441,6.70301167 6.702949,6.70295167 3.726352,-1.57e-4 6.702491,-2.9765997 6.702436,-6.70295167 V -15.024408 c -1.9e-5,-0.152964 0.0168,-0.305465 0.05012,-0.454754 0.232987,-1.832328 1.803731,-3.292304 3.699515,-3.292304 2.044986,0 3.747058,1.702078 3.747058,3.747058 V 6.8414393 h 2.954343 V -15.024408 c 6.9e-5,-3.726341 -2.976083,-6.702794 -6.702435,-6.70295 -3.726508,-6.2e-5 -6.703013,2.976442 -6.702949,6.70295 V 0.09456463 c 4.2e-5,0.149069 -0.0159,0.297712 -0.04754,0.443384 -0.223996,1.84227697 -1.806636,3.30935997 -3.7021,3.30935997 -2.053598,0 -3.747056,-1.707753 -3.747056,-3.75274397 V -15.024408 c 5.6e-5,-3.726352 -2.976084,-6.702794 -6.702435,-6.70295 -3.726508,-6.2e-5 -6.703013,2.976442 -6.702949,6.70295 V 0.09456463 c 4.2e-5,0.149069 -0.0159,0.297712 -0.04754,0.443384 -0.223996,1.84227697 -1.806636,3.30935997 -3.7021,3.30935997 -2.053598,0 -3.747056,-1.707753 -3.747056,-3.75274397 V -15.024408 c 5.6e-5,-3.726352 -2.976084,-6.702794 -6.702436,-6.70295 z M 37.874691,9.1095193 v 2.9233357 h 6.781498 V 9.1095193 Z m 52.255208,0 v 2.9233357 h 6.781498 V 9.1095193 Z" />
  </g>
</svg>
