<?xml version="1.0" encoding="UTF-8" standalone="no"?>
<svg
   xmlns:dc="http://purl.org/dc/elements/1.1/"
   xmlns:cc="http://creativecommons.org/ns#"
   xmlns:rdf="http://www.w3.org/1999/02/22-rdf-syntax-ns#"
   xmlns:svg="http://www.w3.org/2000/svg"
   xmlns="http://www.w3.org/2000/svg"
   xmlns:sodipodi="http://sodipodi.sourceforge.net/DTD/sodipodi-0.dtd"
   xmlns:inkscape="http://www.inkscape.org/namespaces/inkscape"
   width="80.867508mm"
   height="50.024769mm"
   viewBox="0 0 80.867508 50.024769"
   version="1.1"
   id="svg8"
   inkscape:version="1.0.2 (e86c870879, 2021-01-15, custom)"
   sodipodi:docname="fmi.svg">
  <defs
     id="defs2" />
  <sodipodi:namedview
     id="base"
     pagecolor="#ffffff"
     bordercolor="#666666"
     borderopacity="1.0"
     inkscape:pageopacity="0.0"
     inkscape:pageshadow="2"
     inkscape:zoom="0.96377841"
     inkscape:cx="152.30068"
     inkscape:cy="137.31109"
     inkscape:document-units="mm"
     inkscape:current-layer="layer1"
     inkscape:document-rotation="0"
     showgrid="false"
     fit-margin-top="0"
     fit-margin-left="0"
     fit-margin-right="0"
     fit-margin-bottom="0"
     inkscape:window-width="1920"
     inkscape:window-height="1017"
     inkscape:window-x="-8"
     inkscape:window-y="-8"
     inkscape:window-maximized="1" />
  <metadata
     id="metadata5">
    <rdf:RDF>
      <cc:Work
         rdf:about="">
        <dc:format>image/svg+xml</dc:format>
        <dc:type
           rdf:resource="http://purl.org/dc/dcmitype/StillImage" />
        <dc:title></dc:title>
      </cc:Work>
    </rdf:RDF>
  </metadata>
  <g
     inkscape:label="Layer 1"
     inkscape:groupmode="layer"
     id="layer1"
     transform="translate(-47.837451,-110.09514)">
    <path
       d="M 120.20602,160.11991 H 56.342482 v -4.65085 l 2.756958,2.38893 2.88634,-2.38893 h 24.4348 l 2.68605,2.38602 2.896658,-2.38602 h 22.617902 l 2.71992,2.38284 2.86491,-2.38284 z"
       id="path22"
       inkscape:connector-curvature="0"
       style="fill:#000000;fill-opacity:1;stroke-width:0.264583" />
    <path
       d="m 67.947107,110.09514 h 0.353219 v 5.51762 h -0.353219 c -2.84189,0 -4.641585,0.98663 -5.399352,2.95989 -0.395552,1.04061 -0.593196,1.99867 -0.593196,2.86544 v 2.53524 h 8.176683 l -2.017448,5.51471 h -6.15897 v 24.629 l -2.859088,2.2987 -2.658268,-2.2987 v -24.62926 h -8.600017 l 2.012421,-5.51472 h 6.587596 v -2.53523 c 0,-3.53642 1.293547,-6.5286 3.884877,-8.97626 0.992981,-0.75644 2.042847,-1.34011 3.146954,-1.7526 1.327679,-0.4101 2.819664,-0.61383 4.477808,-0.61383 z"
       id="path29"
       inkscape:connector-curvature="0"
       style="fill:#000000;fill-opacity:1;stroke-width:0.264583" />
    <path
       d="m 80.969898,123.97306 c 3.204898,0 5.974028,1.25281 8.311357,3.76238 2.273564,-2.50931 5.148262,-3.82826 8.497093,-3.82826 9.373662,0 10.897662,7.87242 10.897662,10.79315 v 16.50127 h -5.51762 v -16.0057 c 0,-2.55588 -1.28747,-4.37965 -3.859217,-5.46974 -0.710935,-0.15769 -1.279789,-0.23838 -1.70471,-0.23838 -2.258483,0 -3.979069,1.15437 -5.16255,3.45942 -0.286544,0.74136 -0.427567,1.6727 -0.427567,2.79294 v 18.37928 l -2.888985,2.29183 -2.628635,-2.29183 v -19.23044 c 0,-2.02142 -0.871009,-5.4012 -5.317332,-5.4012 -4.791868,0 -5.766064,4.09707 -5.766064,5.44856 v 16.26552 h -5.516563 l 0.02461,-15.89113 c -2.65e-4,-6.105 3.026568,-11.33767 11.058524,-11.33767 z"
       id="path36"
       inkscape:connector-curvature="0"
       style="fill:#000000;fill-opacity:1;stroke-width:0.264583" />
    <path
       d="m 114.62358,133.35545 v 20.76583 l 2.71753,2.28997 2.85882,-2.28997 v -20.76583 z"
       id="path43"
       inkscape:connector-curvature="0"
       style="fill:#000000;fill-opacity:1;stroke-width:0.264583" />
    <path
       d="m 114.63098,123.97306 h 5.5761 v 6.8543 h -5.5761 z"
       id="path50"
       inkscape:connector-curvature="0"
       style="fill:#000000;fill-opacity:1;stroke-width:0.264583" />
  </g>
</svg>
