<?xml version="1.0" encoding="UTF-8" standalone="no"?>
<!-- Created with Inkscape (http://www.inkscape.org/) -->

<svg
   xmlns:dc="http://purl.org/dc/elements/1.1/"
   xmlns:cc="http://creativecommons.org/ns#"
   xmlns:rdf="http://www.w3.org/1999/02/22-rdf-syntax-ns#"
   xmlns:svg="http://www.w3.org/2000/svg"
   xmlns="http://www.w3.org/2000/svg"
   xmlns:sodipodi="http://sodipodi.sourceforge.net/DTD/sodipodi-0.dtd"
   xmlns:inkscape="http://www.inkscape.org/namespaces/inkscape"
   width="211.09938mm"
   height="199.5182mm"
   viewBox="0 0 747.98993 706.95426"
   id="svg2"
   version="1.1"
   inkscape:version="0.91 r13725"
   sodipodi:docname="gears.svg">
  <defs
     id="defs4" />
  <sodipodi:namedview
     id="base"
     pagecolor="#ffffff"
     bordercolor="#666666"
     borderopacity="1.0"
     inkscape:pageopacity="0.0"
     inkscape:pageshadow="2"
     inkscape:zoom="0.24748737"
     inkscape:cx="-1080.3455"
     inkscape:cy="323.65446"
     inkscape:document-units="px"
     inkscape:current-layer="layer1"
     showgrid="false"
     fit-margin-top="0"
     fit-margin-left="0"
     fit-margin-right="0"
     fit-margin-bottom="0"
     inkscape:window-width="1920"
     inkscape:window-height="1018"
     inkscape:window-x="-8"
     inkscape:window-y="-8"
     inkscape:window-maximized="1" />
  <metadata
     id="metadata7">
    <rdf:RDF>
      <cc:Work
         rdf:about="">
        <dc:format>image/svg+xml</dc:format>
        <dc:type
           rdf:resource="http://purl.org/dc/dcmitype/StillImage" />
        <dc:title></dc:title>
      </cc:Work>
    </rdf:RDF>
  </metadata>
  <g
     inkscape:label="Layer 1"
     inkscape:groupmode="layer"
     id="layer1"
     transform="translate(1484.7983,-908.50001)">
    <g
       id="g4205"
       transform="translate(-667.14286,-32.857143)"
       style="fill:#000000;fill-opacity:1;stroke:none">
      <path
         inkscape:connector-curvature="0"
         id="path4187"
         d="m -493.55581,941.35715 -42.40234,47.041 a 215.83855,215.83855 0 0 0 -14.24805,-0.7129 215.83855,215.83855 0 0 0 -15.45312,0.5625 l -41.96484,-46.5351 a 268.36649,268.36649 0 0 0 -36.94141,10.7246 l -10.25,62.57615 a 215.83855,215.83855 0 0 0 -24.34375,15.711 l -60.93164,-16.5899 a 268.36649,268.36649 0 0 0 -25.23633,29.4766 l 25.04297,57.8047 a 215.83855,215.83855 0 0 0 -11.6582,26.0996 l -60.34375,19.0234 a 268.36649,268.36649 0 0 0 -5.36914,38.6661 l 52.33593,35.0976 a 215.83855,215.83855 0 0 0 4.22071,27.9492 l -40.51368,48.668 a 268.36649,268.36649 0 0 0 16.37891,35.5547 l 63.10938,1.2363 a 215.83855,215.83855 0 0 0 18.43359,21.4453 l -7.72656,62.5 a 268.36649,268.36649 0 0 0 32.61132,21.4121 l 54.06641,-33.2695 a 215.83855,215.83855 0 0 0 27.21094,8.127 l 27.39062,56.9668 a 268.36649,268.36649 0 0 0 19.93164,0.998 268.36649,268.36649 0 0 0 18.81055,-0.666 l 27.4668,-57.1563 a 215.83855,215.83855 0 0 0 27.76758,-7.9902 l 53.8164,33.0996 a 268.36649,268.36649 0 0 0 32.47461,-20.7988 l -7.73047,-62.4141 a 215.83855,215.83855 0 0 0 19.25586,-22.3125 l 63.52344,-1.2558 a 268.36649,268.36649 0 0 0 15.61523,-34.8243 l -40.20312,-48.2714 a 215.83855,215.83855 0 0 0 4.23633,-29.67 l 52.63476,-35.3183 a 268.36649,268.36649 0 0 0 -5.70508,-37.543 l -59.9375,-18.8809 a 215.83855,215.83855 0 0 0 -12.60742,-27.3925 l 25.04883,-57.8516 a 268.36649,268.36649 0 0 0 -24.82812,-28.7734 l -61.03516,16.6308 a 215.83855,215.83855 0 0 0 -25.20313,-16.4316 l -10.14453,-61.83595 a 268.36649,268.36649 0 0 0 -36.60547,-10.877 z m -56.65039,160.89845 a 101.26779,101.26779 0 0 1 101.26758,101.2676 101.26779,101.26779 0 0 1 -101.26758,101.2676 101.26779,101.26779 0 0 1 -101.26757,-101.2676 101.26779,101.26779 0 0 1 101.26757,-101.2676 z"
         style="opacity:1;fill:#000000;fill-opacity:1;stroke:none;stroke-width:1.33800006;stroke-miterlimit:10;stroke-dasharray:none;stroke-opacity:1" />
      <path
         inkscape:connector-curvature="0"
         id="circle4174"
         d="m -244.32952,1297.1825 a 178.1156,178.1156 0 0 0 -6.41211,0.2266 l -22.80078,55.5 a 125.97274,125.97274 0 0 0 -31.32618,12.0703 l -53.49608,-26.293 a 178.1156,178.1156 0 0 0 -29.38672,31.3243 l 29.20313,52.4804 a 125.97274,125.97274 0 0 0 -9.68946,30.7207 l -54.08594,25.5157 a 178.1156,178.1156 0 0 0 6.08399,42.9472 l 59.25195,9.8926 a 125.97274,125.97274 0 0 0 17.47656,26.0156 l -13.80273,58.3242 a 178.1156,178.1156 0 0 0 37.40038,22.3711 l 44.53906,-40.0351 a 125.97274,125.97274 0 0 0 27.04493,3.0273 125.97274,125.97274 0 0 0 4.42968,-0.1582 l 37.02539,47.1992 a 178.1156,178.1156 0 0 0 40.57227,-14.9843 l -3.51563,-59.5332 a 125.97274,125.97274 0 0 0 22.6836,-23.7188 l 60.011726,0.4805 a 178.1156,178.1156 0 0 0 13.45703,-40.5274 l -48.710936,-34.3515 a 125.97274,125.97274 0 0 0 0.0195,-0.3789 125.97274,125.97274 0 0 0 -4.55274,-33.5274 l 37.671876,-46.4746 a 178.1156,178.1156 0 0 0 -23.517576,-35.209 l -57.28516,16.6836 a 125.97274,125.97274 0 0 0 -29.62891,-17.6465 l -12.81054,-58.2734 a 178.1156,178.1156 0 0 0 -35.84961,-3.668 z m 0,128.5703 a 49.54417,49.54417 0 0 1 49.54296,49.545 49.54417,49.54417 0 0 1 -49.54296,49.5429 49.54417,49.54417 0 0 1 -49.54493,-49.5429 49.54417,49.54417 0 0 1 49.54493,-49.545 z"
         style="opacity:1;fill:#000000;fill-opacity:1;stroke:none;stroke-width:1.36716354;stroke-miterlimit:10;stroke-dasharray:none;stroke-opacity:1" />
    </g>
  </g>
</svg>
