<?xml version="1.0" encoding="UTF-8" standalone="no"?>
<svg
   xmlns:dc="http://purl.org/dc/elements/1.1/"
   xmlns:cc="http://creativecommons.org/ns#"
   xmlns:rdf="http://www.w3.org/1999/02/22-rdf-syntax-ns#"
   xmlns:svg="http://www.w3.org/2000/svg"
   xmlns="http://www.w3.org/2000/svg"
   xmlns:sodipodi="http://sodipodi.sourceforge.net/DTD/sodipodi-0.dtd"
   xmlns:inkscape="http://www.inkscape.org/namespaces/inkscape"
   width="76.075462mm"
   height="76.092003mm"
   viewBox="0 0 76.075462 76.092003"
   version="1.1"
   id="svg1024"
   inkscape:version="1.0.2 (e86c870879, 2021-01-15, custom)"
   sodipodi:docname="heat-exchanger.svg">
  <defs
     id="defs1018" />
  <sodipodi:namedview
     id="base"
     pagecolor="#ffffff"
     bordercolor="#666666"
     borderopacity="1.0"
     inkscape:pageopacity="0.0"
     inkscape:pageshadow="2"
     inkscape:zoom="0.98994949"
     inkscape:cx="-23.197919"
     inkscape:cy="-19.386372"
     inkscape:document-units="mm"
     inkscape:current-layer="layer1"
     inkscape:document-rotation="0"
     showgrid="false"
     fit-margin-top="0"
     fit-margin-left="0"
     fit-margin-right="0"
     fit-margin-bottom="0"
     inkscape:window-width="1920"
     inkscape:window-height="1017"
     inkscape:window-x="-8"
     inkscape:window-y="-8"
     inkscape:window-maximized="1" />
  <metadata
     id="metadata1021">
    <rdf:RDF>
      <cc:Work
         rdf:about="">
        <dc:format>image/svg+xml</dc:format>
        <dc:type
           rdf:resource="http://purl.org/dc/dcmitype/StillImage" />
        <dc:title></dc:title>
      </cc:Work>
    </rdf:RDF>
  </metadata>
  <g
     inkscape:label="Layer 1"
     inkscape:groupmode="layer"
     id="layer1"
     transform="translate(-83.655357,-129.75642)">
    <path
       id="rect1040"
       style="fill:#000000;fill-opacity:1;stroke:none;stroke-width:0.296333;stroke-miterlimit:8;stroke-opacity:1;stop-color:#000000"
       d="m 93.224799,205.84842 h 4.009059 v -5.32784 h 48.918972 v 5.32784 h 4.00906 V 190.4137 h 5.55987 v 4.7718 h 4.00906 v -23.119 h -4.00906 v 4.7718 h -5.55987 v -18.1746 h 5.55987 v 4.7718 h 4.00906 v -23.119 h -4.00906 v 4.7718 h -5.55987 V 129.75642 H 93.224799 v 15.33188 h -5.560383 v -4.7718 h -4.009059 v 23.119 h 4.009059 v -4.7718 h 5.560383 v 18.1746 h -5.560383 v -4.7718 h -4.009059 v 23.119 h 4.009059 v -4.7718 h 5.560383 z"
       sodipodi:nodetypes="ccccccccccccccccccccccccccccccccccccccccc" />
    <path
       id="rect1142"
       style="fill:#e3dd10;fill-opacity:1;stroke:none;stroke-width:0.296333;stroke-miterlimit:8;stroke-opacity:1;stop-color:#000000"
       d="m 97.233858,133.76547 v 15.33188 h -9.569442 v 5.55729 h 9.569442 v 26.19271 h -9.569442 v 5.55729 h 9.569442 v 10.10687 h 48.918972 v -10.10687 h 9.56893 v -5.55729 h -9.56893 v -26.19271 h 9.56893 v -5.55729 h -9.56893 v -15.33188 z"
       sodipodi:nodetypes="ccccccccccccccccccccc" />
    <path
       id="path1159"
       style="fill:#000000;fill-opacity:1;stroke:none;stroke-width:1.12;stroke-miterlimit:8;stroke-opacity:1;stop-color:#000000"
       d="m 417.31836,532.34961 a 29.168155,29.168155 0 0 0 -29.16797,29.16797 v 142.85937 a 7.8557457,7.8557457 0 0 0 7.85547,7.85547 7.8557457,7.8557457 0 0 0 7.85742,-7.85547 V 561.51758 a 13.455114,13.455114 0 0 1 13.45508,-13.45508 13.455114,13.455114 0 0 1 13.45508,13.45508 h 0.002 v 121.54687 a 29.168155,29.168155 0 0 0 29.16797,29.16797 29.168155,29.168155 0 0 0 29.16797,-29.16797 V 561.51953 h -15.71289 v 121.54492 a 13.455114,13.455114 0 0 1 -13.45508,13.45508 13.455114,13.455114 0 0 1 -13.45508,-13.45508 V 561.51758 a 29.168155,29.168155 0 0 0 -29.16992,-29.16797 z m 85.25,0 a 29.168155,29.168155 0 0 0 -29.16992,29.16797 h 15.71289 a 13.455114,13.455114 0 0 1 13.45508,-13.45508 13.455114,13.455114 0 0 1 13.45507,13.45508 h 0.002 v 142.85937 a 7.8557457,7.8557457 0 0 0 7.85742,7.85547 7.8557457,7.8557457 0 0 0 7.85547,-7.85547 V 561.51758 A 29.168155,29.168155 0 0 0 502.5684,532.34961 Z m -125.875,51.77148 v 8.08008 h 8.86133 v -8.08008 z m 29.74609,0 v 8.08008 h 21.71875 v -8.08008 z m 42.64453,0 v 8.08008 h 21.71875 v -8.08008 z m 42.62305,0 v 8.08008 h 21.71875 v -8.08008 z m 42.625,0 v 8.08008 h 8.86133 v -8.08008 z m -157.63867,39.37696 v 8.08203 h 8.86133 v -8.08203 z m 29.74609,0 v 8.08203 h 21.71875 v -8.08203 z m 42.64453,0 v 8.08203 h 21.71875 v -8.08203 z m 42.62305,0 v 8.08203 h 21.71875 v -8.08203 z m 42.625,0 v 8.08203 h 8.86133 v -8.08203 z m -157.63867,39.3789 v 8.08203 h 8.86133 v -8.08203 z m 29.74609,0 v 8.08203 h 21.71875 v -8.08203 z m 42.64453,0 v 8.08203 h 21.71875 v -8.08203 z m 42.62305,0 v 8.08203 h 21.71875 v -8.08203 z m 42.625,0 v 8.08203 h 8.86133 v -8.08203 z"
       transform="scale(0.26458333)" />
  </g>
</svg>
