<?xml version="1.0" encoding="UTF-8" standalone="no"?>
<svg
   xmlns:dc="http://purl.org/dc/elements/1.1/"
   xmlns:cc="http://creativecommons.org/ns#"
   xmlns:rdf="http://www.w3.org/1999/02/22-rdf-syntax-ns#"
   xmlns:svg="http://www.w3.org/2000/svg"
   xmlns="http://www.w3.org/2000/svg"
   xmlns:sodipodi="http://sodipodi.sourceforge.net/DTD/sodipodi-0.dtd"
   xmlns:inkscape="http://www.inkscape.org/namespaces/inkscape"
   width="83.776611mm"
   height="59.5331mm"
   viewBox="0 0 83.776611 59.5331"
   version="1.1"
   id="svg1296"
   inkscape:version="1.0.2 (e86c870879, 2021-01-15, custom)"
   sodipodi:docname="heat-pump.svg">
  <defs
     id="defs1290" />
  <sodipodi:namedview
     id="base"
     pagecolor="#ffffff"
     bordercolor="#666666"
     borderopacity="1.0"
     inkscape:pageopacity="0.0"
     inkscape:pageshadow="2"
     inkscape:zoom="0.7"
     inkscape:cx="393.53064"
     inkscape:cy="-9.4269736"
     inkscape:document-units="mm"
     inkscape:current-layer="layer1"
     inkscape:document-rotation="0"
     showgrid="false"
     fit-margin-top="0"
     fit-margin-left="0"
     fit-margin-right="0"
     fit-margin-bottom="0"
     inkscape:window-width="1920"
     inkscape:window-height="1017"
     inkscape:window-x="-8"
     inkscape:window-y="-8"
     inkscape:window-maximized="1" />
  <metadata
     id="metadata1293">
    <rdf:RDF>
      <cc:Work
         rdf:about="">
        <dc:format>image/svg+xml</dc:format>
        <dc:type
           rdf:resource="http://purl.org/dc/dcmitype/StillImage" />
        <dc:title></dc:title>
      </cc:Work>
    </rdf:RDF>
  </metadata>
  <g
     inkscape:label="Layer 1"
     inkscape:groupmode="layer"
     id="layer1"
     transform="translate(115.97093,-113.48629)">
    <path
       style="fill:#000000;stroke-width:1"
       d="m -114.20298,113.48629 74.658243,0.24356 c 4.532262,0.95156 7.589861,5.14706 7.3091,10.02922 -0.207512,3.60841 -2.104272,6.68985 -5.015767,8.14849 -1.929899,0.96687 -2.190596,0.99168 -10.41926,0.99168 h -7.491746 l 0.322826,0.63279 c 0.787031,1.54271 1.556106,3.89671 2.023038,6.19215 l 0.08847,0.43491 6.510785,0.0504 6.510784,0.0504 1.19402,0.43603 c 2.34291,0.85557 4.108563,2.41032 5.200087,4.57894 2.893901,5.74955 -0.07649,12.67942 -6.070561,14.16249 -0.581484,0.14388 -3.618796,0.21981 -10.804633,0.27012 l -9.995767,0.07 -1.328344,0.96037 c -2.631804,1.90277 -5.932961,3.25801 -9.255222,3.79961 -2.339735,0.38142 -6.044168,0.23875 -8.281237,-0.31894 -2.916295,-0.72703 -5.281601,-1.82063 -7.717071,-3.568 l -1.250179,-0.89696 h -9.701741 c -10.692725,0 -10.335655,-0.0324 -11.262345,1.02301 -1.51262,1.72277 -0.97174,4.89647 0.986,5.78551 0.644,0.29245 1.87103,0.3025 37.347903,0.30594 l 36.682032,0.004 v 3.07369 3.07369 l -36.843805,-0.0129 c -30.50475,-0.0106 -37.01891,-0.0509 -37.86157,-0.23387 l -6e-5,-1.6e-4 c -5.10088,-1.10762 -8.17624,-6.20017 -7.06005,-11.69085 0.38399,-1.88889 1.22762,-3.46416 2.57381,-4.80593 1.3049,-1.30061 2.25622,-1.86071 3.96444,-2.33408 1.14323,-0.3168 1.61995,-0.33517 8.69807,-0.33517 h 7.488532 l -0.322826,-0.63279 c -0.823131,-1.61348 -1.577131,-3.93051 -2.041351,-6.27304 l -0.0701,-0.35402 -6.510775,-0.0504 -6.51079,-0.0504 -1.19402,-0.43602 c -2.32559,-0.84925 -4.11489,-2.42493 -5.1997,-4.57894 -2.89296,-5.74428 0.0799,-12.68037 6.07018,-14.1625 0.58148,-0.14387 3.61891,-0.2198 10.805175,-0.27012 l 9.996328,-0.07 1.233509,-0.88501 c 2.432636,-1.74533 4.780576,-2.82591 7.785073,-3.58287 1.579628,-0.39797 1.992571,-0.43476 4.880218,-0.43476 2.906707,0 3.293796,0.035 4.926435,0.4459 2.995346,0.7538 5.287482,1.81295 7.755526,3.58369 l 1.250179,0.89697 h 9.701746 c 10.692721,0 10.335657,0.0324 11.262345,-1.02301 1.512617,-1.72277 0.971737,-4.89647 -0.986003,-5.78552 -0.643996,-0.29245 -1.871028,-0.3025 -37.347905,-0.30593 l -36.682026,-0.004 z m 74.255495,39.61024 c 0.98226,-0.57749 1.47796,-1.48297 1.57811,-2.8827 0.06246,-0.87303 0.0099,-1.23445 -0.272079,-1.87199 -0.446109,-1.0085 -0.749274,-1.34306 -1.550429,-1.71095 -0.590113,-0.27098 -1.170328,-0.29746 -6.589169,-0.3007 l -5.942077,-0.004 -0.09097,0.44488 c -0.476108,2.32835 -1.237195,4.65683 -2.030218,6.21128 l -0.327501,0.64196 7.247307,-0.0496 7.247306,-0.0496 z m -55.42339,-13.28125 c 0.47563,-2.38272 1.21912,-4.6664 2.048528,-6.29218 l 0.327501,-0.64195 -7.247304,0.0496 -7.2473,0.0496 -0.7034,0.40269 c -1.7533,1.00376 -2.1966,3.86937 -0.87265,5.64096 0.83536,1.1178 1.03488,1.14772 7.6799,1.15169 l 5.942065,0.004 z"
       id="path1314"
       sodipodi:nodetypes="ccssscsscccsssscsssscssscccccccsssscsccccsssscssscscscsccccscsccsscccccscccssccc" />
    <path
       style="fill:#e3dd10;fill-opacity:1;stroke-width:1"
       d="m -72.142055,161.04939 c 2.829702,-0.32454 5.466322,-1.26746 7.802903,-2.79053 9.539935,-6.21844 10.940302,-19.59689 2.893554,-27.64364 -7.021616,-7.02161 -18.278833,-7.02161 -25.269274,0 -3.497147,3.51274 -5.207678,7.66378 -5.207678,12.63773 0,4.97396 1.710531,9.12499 5.207678,12.63774 3.861201,3.87842 9.21407,5.7733 14.572817,5.1587 z m -4.125212,-3.22943 c -0.732354,-0.30292 -1.039754,-0.95356 -2.258225,-4.77974 -1.38524,-4.34985 -1.406992,-4.59425 -0.481275,-5.40704 0.650621,-0.57125 1.030085,-0.60823 2.373516,-0.23128 0.550355,0.15442 1.002252,0.20542 1.075103,0.12133 0.06912,-0.0798 0.366253,-0.94584 0.660292,-1.92457 0.29404,-0.97872 0.568986,-1.8705 0.610992,-1.98172 0.05818,-0.15403 -0.342093,-0.20227 -1.679992,-0.20246 -1.34925,-1.7e-4 -1.886864,-0.0658 -2.319349,-0.28311 -0.74644,-0.37502 -1.297409,-1.22198 -1.297409,-1.99439 0,-0.33669 0.755776,-3.02468 1.679504,-5.97331 1.828232,-5.83592 1.983579,-6.14982 3.206425,-6.4791 0.871712,-0.23473 1.761522,0.0413 2.371101,0.73559 0.85636,0.97534 0.832977,1.31768 -0.351522,5.14645 -0.583407,1.8858 -1.106566,3.54811 -1.162575,3.69403 -0.08992,0.23427 0.11235,0.27223 1.72859,0.32442 1.555517,0.0502 1.918951,0.11403 2.419852,0.42477 0.662503,0.41101 1.109191,1.20672 1.109191,1.97587 0,0.28318 -0.509585,2.15084 -1.132411,4.15035 -0.622827,1.99951 -1.132412,3.66259 -1.132412,3.69574 0,0.0331 0.387575,0.17293 0.861278,0.31064 0.9481,0.27562 1.309126,0.58586 1.577438,1.35554 0.342671,0.98299 0.04342,1.39337 -3.204112,4.39399 -3.391667,3.13378 -3.695045,3.32465 -4.654,2.928 z"
       id="path1312"
       sodipodi:nodetypes="scssssssssssssscsssssssssssssss" />
  </g>
</svg>
