<?xml version="1.0" encoding="UTF-8" standalone="no"?>
<svg
   xmlns:dc="http://purl.org/dc/elements/1.1/"
   xmlns:cc="http://creativecommons.org/ns#"
   xmlns:rdf="http://www.w3.org/1999/02/22-rdf-syntax-ns#"
   xmlns:svg="http://www.w3.org/2000/svg"
   xmlns="http://www.w3.org/2000/svg"
   xmlns:sodipodi="http://sodipodi.sourceforge.net/DTD/sodipodi-0.dtd"
   xmlns:inkscape="http://www.inkscape.org/namespaces/inkscape"
   width="107.7064mm"
   height="100.08806mm"
   viewBox="0 0 107.7064 100.08806"
   version="1.1"
   id="svg1322"
   inkscape:version="1.0.2 (e86c870879, 2021-01-15, custom)"
   sodipodi:docname="power-to-heat.svg">
  <defs
     id="defs1316" />
  <sodipodi:namedview
     id="base"
     pagecolor="#ffffff"
     bordercolor="#666666"
     borderopacity="1.0"
     inkscape:pageopacity="0.0"
     inkscape:pageshadow="2"
     inkscape:zoom="0.35"
     inkscape:cx="702.52214"
     inkscape:cy="169.14284"
     inkscape:document-units="mm"
     inkscape:current-layer="layer1"
     inkscape:document-rotation="0"
     showgrid="false"
     fit-margin-top="0"
     fit-margin-left="0"
     fit-margin-right="0"
     fit-margin-bottom="0"
     inkscape:window-width="1920"
     inkscape:window-height="1017"
     inkscape:window-x="-8"
     inkscape:window-y="-8"
     inkscape:window-maximized="1" />
  <metadata
     id="metadata1319">
    <rdf:RDF>
      <cc:Work
         rdf:about="">
        <dc:format>image/svg+xml</dc:format>
        <dc:type
           rdf:resource="http://purl.org/dc/dcmitype/StillImage" />
        <dc:title></dc:title>
      </cc:Work>
    </rdf:RDF>
  </metadata>
  <g
     inkscape:label="Layer 1"
     inkscape:groupmode="layer"
     id="layer1"
     transform="translate(145.88956,-103.41429)">
    <path
       style="fill:#000000;stroke-width:1"
       d="m -65.096836,199.71589 c -2.082279,-2.08256 -3.785965,-3.81106 -3.785965,-3.8411 0,-0.03 3.440529,-0.0546 7.645619,-0.0546 4.205091,0 7.64562,0.0248 7.64562,0.0551 0,0.0838 -7.562183,7.62706 -7.646146,7.62706 -0.04024,0 -1.776849,-1.70391 -3.859128,-3.78649 z m -3.859128,-15.41901 v -3.8411 h -34.415866 c -34.1239,0 -34.41987,-0.001 -34.88613,-0.14524 -2.45466,-0.75817 -4.67805,-4.84074 -6.12004,-11.23754 -0.66807,-2.96361 -1.08786,-5.98832 -1.41569,-10.20055 -0.12783,-1.64246 -0.12783,-9.11261 0,-10.75508 0.35728,-4.59052 0.84534,-7.91756 1.62906,-11.10507 0.8141,-3.31104 1.89046,-6.06378 3.08153,-7.88094 0.48088,-0.73366 1.64908,-1.91037 2.17156,-2.18739 0.75546,-0.40055 0.84329,-0.40812 4.74832,-0.40906 l 3.60332,-8.7e-4 v -5.77994 -5.77994 h 7.71878 7.71878 v 5.77994 5.77995 h 34.415876 c 34.123894,0 34.419863,0.001 34.886129,0.14524 2.62285,0.81012 4.976961,5.42678 6.380125,12.5121 0.522134,2.63648 0.865675,5.24218 1.118961,8.487 0.184812,2.36759 0.183918,9.27457 -0.0015,11.63305 -0.668587,8.50409 -2.294616,14.90564 -4.720355,18.58361 -0.503361,0.76321 -1.51896,1.79914 -2.065502,2.10684 -0.785999,0.44253 -0.907167,0.45389 -4.840137,0.45389 h -3.569667 v 3.8411 3.8411 h -7.718783 -7.718783 v -3.8411 z m 11.539243,-23.83311 c -0.02678,-13.77967 0.01678,-12.67049 -0.566149,-14.41606 -0.348581,-1.04384 -0.9487,-2.23884 -1.558491,-3.10339 -0.579546,-0.82167 -1.883442,-2.12557 -2.705108,-2.70511 -4.14732,-2.92522 -9.621591,-2.83206 -13.69415,0.23304 -0.73262,0.55139 -1.964409,1.84989 -2.499121,2.63446 -0.857136,1.25767 -1.52507,2.82082 -1.812804,4.24244 -0.208137,1.02836 -0.259945,2.31871 -0.261644,6.51659 -0.0014,3.55469 -0.01738,4.15523 -0.119476,4.49958 -0.367772,1.24047 -1.25695,2.18388 -2.463695,2.61394 -0.719263,0.25633 -1.695114,0.2666 -2.407562,0.0254 -1.206991,-0.40873 -2.148379,-1.37046 -2.552543,-2.60772 -0.07292,-0.22323 -0.106098,-1.46417 -0.139861,-5.23121 -0.04249,-4.74036 -0.05084,-4.97017 -0.208261,-5.72621 -1.098054,-5.27365 -5.477973,-9.05185 -10.806513,-9.32192 -5.117081,-0.25934 -9.855531,3.00205 -11.483371,7.90382 -0.55951,1.68479 -0.61971,2.43413 -0.62119,7.73254 -0.001,3.43239 -0.0198,4.20818 -0.11055,4.55668 -0.48727,1.87072 -2.35481,3.12024 -4.24368,2.83931 -1.56401,-0.23262 -2.85723,-1.41917 -3.21897,-2.95346 -0.0928,-0.39377 -0.10815,-2.10809 -0.10908,-12.21911 l -10e-4,-11.76108 h -3.84294 -3.84294 l 0.0227,12.34639 0.0227,12.3464 0.16372,0.71417 c 0.59434,2.59261 1.85137,4.74843 3.72267,6.38443 2.69936,2.35995 6.29329,3.34022 9.77951,2.66745 4.53618,-0.87539 8.18443,-4.46591 9.12778,-8.98334 0.22841,-1.09377 0.27899,-2.28577 0.28178,-6.64083 0.003,-4.43424 -0.003,-4.36935 0.46683,-5.26277 0.30824,-0.58624 0.99228,-1.25815 1.58449,-1.55638 0.26148,-0.13168 0.74476,-0.2951 1.07396,-0.36316 0.512555,-0.10597 0.684381,-0.11124 1.195938,-0.0367 1.493287,0.21765 2.74415,1.28937 3.222511,2.76101 0.07212,0.22189 0.106955,1.49565 0.144039,5.26779 0.0545,5.54354 0.04934,5.48092 0.5838,7.08138 2.029921,6.07863 8.558539,9.37462 14.575824,7.35864 3.434972,-1.15082 6.18412,-3.89642 7.322427,-7.31297 0.566967,-1.70172 0.630898,-2.49582 0.633071,-7.8637 0.0015,-3.53719 0.01774,-4.15691 0.118386,-4.49957 0.545897,-1.85853 2.358765,-3.06122 4.208039,-2.79168 1.582212,0.23061 2.883313,1.41682 3.247281,2.96056 0.09284,0.39376 0.108144,2.10809 0.109073,12.21911 l 0.0011,11.76108 h 3.842708 3.842746 z m -69.284049,-53.15378 c -2.08228,-2.08257 -3.78597,-3.81106 -3.78597,-3.8411 0,-0.03 3.44864,-0.0546 7.66365,-0.0546 h 7.66365 l -3.84058,3.8411 c -2.11231,2.1126 -3.85727,3.8411 -3.87768,3.8411 -0.0204,0 -1.74079,-1.70392 -3.82307,-3.78649 z"
       id="path1340"
       sodipodi:nodetypes="ssssssccscssssssscccccccsccscssscccccccssssssscssssssssccssccccccssssssssssssssccscscccsssscsss" />
    <path
       style="fill:#e3dd10;fill-opacity:1;stroke-width:1"
       d="m -68.955964,184.29688 c -1e-5,-10e-6 3.6e-5,1e-5 3.6e-5,0 z m 12.525221,-1.81483 0.02237,-2.72937 0.273244,-0.55265 c 0.329121,-0.66565 0.752959,-1.08053 1.432965,-1.40269 l 0.488705,-0.23153 3.796112,-0.0214 3.796121,-0.0214 0.45,-0.45416 c 3.156193,-3.18539 5.418263,-14.60809 5.083839,-25.67169 -0.232718,-7.6987 -1.402324,-14.27568 -3.32318,-18.68708 -0.56045,-1.28712 -1.373484,-2.53972 -1.966688,-3.02998 l -0.221314,-0.18291 -34.609413,-0.0366 -34.609408,-0.0366 -0.48871,-0.23153 c -0.6801,-0.32221 -1.10385,-0.73704 -1.43296,-1.40281 l -0.27325,-0.55277 -0.0209,-4.6681 -0.0209,-4.6681 h -4.78709 -4.78709 l -0.0209,4.6642 -0.0209,4.66419 -0.23153,0.48871 c -0.32217,0.68004 -0.73704,1.10385 -1.40273,1.43296 l -0.55269,0.27325 -3.81289,0.0366 -3.81289,0.0366 -0.25168,0.20997 c -0.60411,0.504 -1.42047,1.7889 -2.01515,3.17177 -2.51624,5.85118 -3.77395,16.3886 -3.09813,25.95695 0.43834,6.20612 1.55189,11.67042 3.12412,15.33032 0.57084,1.32882 1.41582,2.64219 2.02245,3.14355 l 0.22132,0.18291 34.60941,0.0366 34.609408,0.0366 0.488705,0.23153 c 0.680006,0.32216 1.103844,0.73704 1.432964,1.40269 l 0.273245,0.55265 0.02237,2.72937 0.02237,2.72938 h 4.784065 4.784066 z m -9.333984,-6.9351 c -0.456381,-0.10933 -1.119245,-0.50011 -1.441715,-0.84995 -0.164311,-0.17827 -0.402942,-0.54403 -0.530284,-0.81282 l -0.231527,-0.48871 -0.03658,-12.0021 c -0.03447,-11.30781 -0.04404,-12.0135 -0.165635,-12.19905 -0.397068,-0.60593 -1.156055,-0.59808 -1.537926,0.0159 -0.162087,0.26061 -0.162124,0.26164 -0.204288,5.2358 l -0.04218,4.97514 -0.19144,0.85625 c -0.274957,1.22979 -0.647683,2.29828 -1.181581,3.38725 -0.816816,1.66603 -1.669689,2.83567 -3.015638,4.1357 -1.199868,1.15893 -2.08261,1.76993 -3.698264,2.5598 -1.728468,0.84503 -3.214887,1.24907 -5.162832,1.40337 -2.630852,0.2084 -5.128752,-0.2689 -7.517583,-1.43646 -2.925536,-1.42988 -5.178156,-3.69386 -6.627484,-6.66092 -0.766497,-1.56917 -1.188319,-3.02081 -1.382338,-4.75714 -0.04104,-0.36723 -0.0739,-2.5839 -0.07429,-5.01172 -6.22e-4,-3.99919 -0.01112,-4.37365 -0.128636,-4.60412 -0.35933,-0.70469 -1.239472,-0.73154 -1.613222,-0.0492 -0.1123,0.20501 -0.12817,0.70373 -0.16441,5.16548 l -0.0401,4.93856 -0.19713,0.90367 c -0.50246,2.30327 -1.52175,4.4499 -2.95931,6.2323 -0.91305,1.13207 -2.38901,2.42724 -3.61265,3.17012 -2.69209,1.63441 -5.65063,2.35072 -8.71629,2.11034 -1.96333,-0.15394 -3.59515,-0.59671 -5.29642,-1.43708 -2.93798,-1.45127 -5.16731,-3.69055 -6.61236,-6.64187 -0.78145,-1.596 -1.20799,-3.0631 -1.39072,-4.78346 -0.0516,-0.48563 -0.07,-4.77886 -0.0558,-13.01617 l 0.0212,-12.29152 0.23153,-0.48871 c 0.32225,-0.68019 0.73703,-1.10386 1.40292,-1.43296 l 0.55288,-0.27324 h 4.54374 4.54375 l 0.55288,0.27324 c 0.66588,0.3291 1.08067,0.75277 1.40292,1.43296 l 0.23152,0.48871 0.0366,11.99887 c 0.0271,8.89471 0.0585,12.03693 0.12126,12.14601 0.13383,0.23256 0.3505,0.40021 0.61538,0.47618 0.32083,0.092 0.78164,-0.12201 0.9843,-0.45715 0.13927,-0.2303 0.14633,-0.42735 0.18708,-5.21448 l 0.0423,-4.97514 0.19276,-0.88036 c 0.479,-2.18764 1.53283,-4.42839 2.85482,-6.0702 0.66888,-0.83069 2.09163,-2.18247 2.90548,-2.76055 0.92349,-0.65596 2.77959,-1.59816 3.8509,-1.95482 5.450917,-1.8147 11.47888,-0.22005 15.335514,4.05689 0.915763,1.01557 1.581561,2.00661 2.211858,3.29237 0.8235,1.67988 1.243997,3.11497 1.425615,4.8654 0.03966,0.38228 0.07274,2.63756 0.0735,5.01172 0.0013,3.96357 0.01185,4.33719 0.129305,4.56754 0.169791,0.33298 0.451863,0.5296 0.772799,0.5387 0.346043,0.01 0.604247,-0.13681 0.80261,-0.45575 0.162074,-0.26059 0.16213,-0.26202 0.204731,-5.2358 l 0.04261,-4.97514 0.193038,-0.88305 c 0.394476,-1.80453 1.173827,-3.61666 2.247625,-5.22613 0.485479,-0.72766 0.835448,-1.13902 1.712617,-2.01305 1.313166,-1.30847 2.075863,-1.86785 3.638137,-2.6683 2.587801,-1.3259 5.241937,-1.82711 8.120187,-1.53343 1.693706,0.17282 3.146593,0.59346 4.783188,1.38485 4.540305,2.19551 7.578425,6.53098 8.084053,11.53616 0.05557,0.5501 0.0733,4.53738 0.05787,13.01524 l -0.02224,12.22217 -0.273245,0.55286 c -0.329106,0.66586 -0.752782,1.08065 -1.432965,1.40289 l -0.488705,0.23153 -4.389829,0.0123 c -2.501983,0.007 -4.511983,-0.017 -4.673873,-0.0557 z"
       id="path1338"
       sodipodi:nodetypes="cccccsscccsssscccsscccccccsscccssssscccssccccccssscsssscsssssssscssscsssssssscsscccsscssssscsssssssssssscssssscsccsscsss" />
  </g>
</svg>
